<?xml version="1.0" encoding="UTF-8"?>
<!DOCTYPE svg PUBLIC "-//W3C//DTD SVG 1.1//EN" "http://www.w3.org/Graphics/SVG/1.1/DTD/svg11.dtd">
<!-- Creator: CorelDRAW -->
<svg xmlns="http://www.w3.org/2000/svg" xml:space="preserve" width="137.667mm" height="146.571mm" version="1.1" style="shape-rendering:geometricPrecision; text-rendering:geometricPrecision; image-rendering:optimizeQuality; fill-rule:evenodd; clip-rule:evenodd"
viewBox="0 0 14026.43 14933.65"
 xmlns:xlink="http://www.w3.org/1999/xlink"
 xmlns:xodm="http://www.corel.com/coreldraw/odm/2003">
 <defs>
  <style type="text/css">
   <![CDATA[
    .fil0 {fill:#CCCCCC}
   ]]>
  </style>
 </defs>
 <g id="Camada_x0020_1">
  <metadata id="CorelCorpID_0Corel-Layer"/>
  <path class="fil0" d="M10807.47 4671.27l-10807.47 -4671.27 0 11676.5 6541.02 2815.13c14.26,6.2 28.6,12.29 42.95,18.37 3.1,1.31 6.17,2.65 9.28,3.96 37.46,15.81 75.15,31.21 113.05,46.19 2.41,0.96 4.82,1.94 7.24,2.89 38.63,15.2 77.47,29.97 116.54,44.3 1.68,0.62 3.34,1.24 5.02,1.86 39.83,14.55 79.88,28.67 120.14,42.3l2.66 0.91c41.08,13.9 82.39,27.32 123.9,40.23 503.03,156.55 1037.86,240.99 1592.42,240.99 1477.95,0 2816.02,-599.07 3784.57,-1567.62 968.55,-968.55 1567.62,-2306.62 1567.62,-3784.57 0,-1477.96 -599.07,-2816.03 -1567.62,-3784.58 -363.31,-363.31 -778.64,-674.57 -1233.82,-921.77l-0.73 -0.41c-37.22,-20.2 -74.7,-39.98 -112.44,-59.32 -1.02,-0.53 -2.05,-1.06 -3.07,-1.58 -37.01,-18.93 -74.23,-37.43 -111.72,-55.52 -1.75,-0.84 -3.47,-1.69 -5.23,-2.54 -36.81,-17.72 -73.87,-35.01 -111.14,-51.9 -2.4,-1.08 -4.8,-2.19 -7.18,-3.27 -21.94,-9.89 -43.92,-19.69 -66,-29.3z"/>
 </g>
</svg>
