<?xml version="1.0" encoding="UTF-8"?>
<!DOCTYPE svg PUBLIC "-//W3C//DTD SVG 1.1//EN" "http://www.w3.org/Graphics/SVG/1.1/DTD/svg11.dtd">
<!-- Creator: CorelDRAW -->
<svg xmlns="http://www.w3.org/2000/svg" xml:space="preserve" width="88.2813mm" height="100mm" version="1.1" style="shape-rendering:geometricPrecision; text-rendering:geometricPrecision; image-rendering:optimizeQuality; fill-rule:evenodd; clip-rule:evenodd"
viewBox="0 0 419.61 475.31"
 xmlns:xlink="http://www.w3.org/1999/xlink"
 xmlns:xodm="http://www.corel.com/coreldraw/odm/2003">
 <defs>
  <style type="text/css">
   <![CDATA[
    .fil0 {fill:gray}
   ]]>
  </style>
 </defs>
 <g id="Camada_x0020_1">
  <metadata id="CorelCorpID_0Corel-Layer"/>
  <path class="fil0" d="M75.2 69.62l269.22 0c0,9.72 -1.43,18.97 -1.86,27.85l-1.86 27.85 -206.09 0c0,9.77 1.51,18.98 1.86,25.99 0.18,3.66 -0.16,6.15 0.39,9.82l2.39 35.67 196.81 0c-0.47,5.59 -1.74,14.67 -1.87,20.4l-4.49 62.35c-0.8,7.3 -0.54,13.81 -1.12,21.16 -1.3,16.55 -4.59,49.34 -4.59,63.18 -5.28,2.8 -111.39,38.06 -114.18,38.06l-57.21 -18.92c-9.96,-3.32 -18.59,-6.19 -28.55,-9.51l-28.43 -9.63 -2.83 -49.15c-0.23,-2.92 -0.81,-3.35 -0.88,-6.55l55.7 0 0.93 15.78c9.86,2.3 57.76,20.37 61.93,19.97l57.78 -19.09c2.2,-1.02 2.43,0.11 3.37,-4.05 0.26,-1.13 0.3,-0.89 0.42,-2.37l1.81 -30.68c0.11,-4.49 0.75,-4.23 0.94,-8.34 0.16,-3.39 -0.12,-5.49 0.39,-8.89l1.46 -18.03 -188.45 0c-1.17,-14.1 -2.06,-30.83 -3.58,-44.7l-4.8 -68.54c-0.46,-19.31 -4.62,-53.83 -4.62,-69.64zm134.61 405.68c3.02,0 122.15,-39.93 135.66,-44.44 8.98,-3 39.38,-12.1 45.37,-14.97l3.46 -51.31c1.15,-8.51 0.81,-18.29 1.86,-25.99 1.15,-8.51 0.81,-18.29 1.86,-25.99 2.37,-17.53 3.29,-61.13 5.57,-77.98 1.31,-9.69 2.12,-42.43 3.58,-52.12 2.1,-13.98 3.47,-64.01 5.57,-77.98 1.27,-8.46 0.59,-17.54 1.86,-25.99l5.03 -78.52 -419.61 0c0,7.16 0.42,13.18 0.98,20.37l5.66 79.75c0.54,4.95 1.61,14.42 1.74,19.61 0.14,5.95 0.36,14.21 1.16,20.19l8.78 119.33c1.62,11.95 0.78,25.07 2.78,39.92l5.82 80.51c0.33,6.9 0.31,13.4 1.07,20.28 0.37,3.38 0.8,4.69 0.75,9.46 -0.01,1.69 -0.2,3.65 0.37,5.2 1.51,4.06 11,5.11 19.28,7.64l96.31 31.8c10.55,3.52 21.01,7 32.03,10.67l33.07 10.56z"/>
 </g>
</svg>
