<?xml version="1.0" encoding="UTF-8"?>
<!DOCTYPE svg PUBLIC "-//W3C//DTD SVG 1.1//EN" "http://www.w3.org/Graphics/SVG/1.1/DTD/svg11.dtd">
<!-- Creator: CorelDRAW -->
<svg xmlns="http://www.w3.org/2000/svg" xml:space="preserve" width="664.243mm" height="100mm" version="1.1" style="shape-rendering:geometricPrecision; text-rendering:geometricPrecision; image-rendering:optimizeQuality; fill-rule:evenodd; clip-rule:evenodd"
viewBox="0 0 28754.35 4328.89"
 xmlns:xlink="http://www.w3.org/1999/xlink"
 xmlns:xodm="http://www.corel.com/coreldraw/odm/2003">
 <defs>
  <style type="text/css">
   <![CDATA[
    .fil3 {fill:black}
    .fil1 {fill:#2196F3}
    .fil2 {fill:#38BCF8}
    .fil0 {fill:#5E3B7F}
   ]]>
  </style>
 </defs>
 <g id="Camada_x0020_1">
  <metadata id="CorelCorpID_0Corel-Layer"/>
  <g id="_2301550914048">
   <g>
    <path class="fil0" d="M27215.56 2096.81l0 16.91c331.28,77.18 473.47,310.91 473.47,659.48 0,139.55 -37.71,241.89 -87.28,335.46 -20.67,39.01 -62.04,89.74 -92.14,119.23 -194.35,190.43 -512.85,238.61 -835.16,238.61l-1073.76 0 0 -2519.55 1293.59 0c292.88,0 589.09,140.17 661.37,437.76 41.42,170.55 22.21,325.35 -44.05,458.57 -48.53,97.55 -207.31,246.15 -296.04,253.53zm-2790.1 -1411.96l0 2959.2c0,129.81 61.18,283.53 129.07,378.22 51.89,72.4 101.13,121.48 172.71,173.94 95.39,69.92 251.53,132.68 383.07,132.68l2959.2 0c129.81,0 283.53,-61.18 378.22,-129.07 110.85,-79.46 175.15,-156.38 236.28,-279.47 35.1,-70.67 70.34,-174.54 70.34,-276.31l0 -2959.2c0,-99.3 -34.67,-204.07 -67.51,-270.68 -79.99,-162.27 -178.11,-262.91 -341.02,-343.82 -70.67,-35.1 -174.54,-70.34 -276.31,-70.34l-2959.2 0c-350.94,0 -684.84,333.72 -684.84,684.84z"/>
    <path class="fil0" d="M26040.34 3086.03c0,19.48 5.88,25.36 25.36,25.36l676.39 0c185.9,0 375.36,-28.29 456.81,-185.76 129.36,-250.11 25.72,-609 -321.54,-609l-837.03 0 0 769.4z"/>
    <path class="fil0" d="M26040.34 2003.8l693.3 0c497.38,0 445.95,-487.39 327.91,-606.92 -55.43,-56.14 -135.85,-94.83 -243.36,-94.83l-777.85 0 0 701.76z"/>
   </g>
   <path class="fil1" d="M1893.89 4328.89l1522.59 -422.03c40.94,-13.77 36.67,-40.6 41.51,-152.96 2.46,-57.37 12.14,-124.41 16.33,-178.13l143.08 -1607.07c6.93,-65.91 5.45,-115.9 14.62,-179.84l155.77 -1788.85 -3787.78 0c0,88.62 49.26,581.97 59.83,718.02 8.66,111.51 28.26,242.89 33.12,355.81l188.4 2145.14c13.89,106.25 25.37,242.39 31.74,357.19l24.76 262.7c1.21,48.37 -7.07,54.36 33.46,68 46.19,15.54 103.76,28.62 152.95,41.51l1063.43 297.8c47.36,13.33 100.09,27.61 152.19,42.28 23.58,6.64 131.96,40.44 154.02,40.44zm-1168.44 -3086.04c65.59,15.65 1738.3,0.34 1850.82,0.05l-26.07 357.38c-1.76,23 -0.06,108.19 -16.92,122.58 -34.25,17.87 -1575.62,24.74 -1759.4,26.09l46.85 453.13 1679.29 -3.97 -72.86 664.9c-88.61,18.06 -181,46.57 -263.95,69.32 -331.73,91 -207.23,90.31 -532.2,1.96 -85.65,-23.29 -180.18,-52.63 -266.97,-71.43l-40.05 -397.69 -476.21 -1.78 64.57 768.8c154.26,32.68 931.19,267.98 981.23,267.03 48.36,-0.91 856.96,-243.96 982.12,-267.09l217.29 -2433.94 -2396.5 -1.61 28.96 446.27z"/>
   <g>
    <path class="fil2" d="M15815.24 1442.33c8.39,-6.15 97.94,-123.77 130.94,-156.4l253.76 -225.14c86.58,-64.96 218.52,-125.6 323.19,-155.71 24.96,-7.18 54.9,-15.01 76.74,-19.04 210.41,-38.8 418.84,-16.91 610.3,62.82 110.05,45.83 204.55,118.93 290.52,188.38l245.64 233.25c43.89,43.86 98.11,110.75 143.92,149.05 14.73,12.31 19.32,13.96 33.64,28.34 20.24,20.34 40.74,43.91 62.15,61.8 113.03,94.48 122.06,107.22 261.56,211.71 72.23,54.11 226.54,141.77 305.01,173.88 348.03,142.42 551.88,168.21 936.07,168.21 154.18,0 377.09,-29.09 521.6,-69.99l153.8 -49.02c80.42,-26.67 192.26,-82.34 267.32,-127.07 113.59,-67.7 138.37,-96.84 230.02,-170 81.98,-65.44 214.19,-230.5 270.7,-320.88 129.32,-206.8 204.77,-388.12 271.77,-624.05 7.02,-24.71 18.01,-56.2 20.1,-81.32 -77.03,88.62 -80.29,105.64 -178.88,204.24 -137.88,137.88 -264.98,238.5 -456.85,309.39 -244.79,90.43 -521.64,78.77 -759.18,-20.16 -131.87,-54.92 -221.12,-133 -319.52,-215.73 -14.62,-12.29 -19.34,-13.98 -33.63,-28.35l-183.04 -177.55c-40.26,-39.9 -92.63,-102.25 -143.58,-149.39 -13.68,-12.65 -20.1,-14.61 -33.99,-27.99l-188.78 -171.8c-211.22,-184.64 -529.96,-339.9 -805.49,-394.58 -137.13,-27.21 -279.88,-44.2 -423.82,-49.26l-179.53 0c-323.27,11.59 -643.25,86.98 -909.85,246.08 -19.59,11.69 -40.7,24.22 -58.62,37.17 -268.75,194.29 -344.79,292.63 -517.5,581.14 -21.78,36.38 -49.05,92.46 -65.14,132.05 -8.95,22.03 -18.78,41.08 -29,66.78 -10.55,26.51 -18.92,45.38 -28.66,72.76 -17.8,50.08 -89.28,253.59 -93.67,306.35z"/>
    <path class="fil2" d="M14012.33 3605.82c8.39,-6.15 97.94,-123.77 130.94,-156.4 125.92,-124.49 107.64,-115.52 253.76,-225.14l118.54 -73.02c288.17,-143.94 588.89,-165 891.67,-38.91 110.05,45.83 204.55,118.93 290.52,188.38 44.65,36.07 78.61,76.92 121.74,114.9 12.92,11.38 17.87,12.59 31.06,25.28l236.77 242.13c14.73,12.31 19.32,13.96 33.64,28.34 20.24,20.34 40.74,43.91 62.15,61.8l62.69 55.63c22.96,17.76 42.4,35.48 63.97,54.34 209.76,183.35 531.3,339.51 800.77,393.66 342.77,68.89 757,76.37 1096.8,-19.8 219.5,-62.13 419.95,-152.3 595.7,-300.12 20.27,-17.05 35.35,-29.94 55.44,-45.98 64.16,-51.23 135.65,-140 188.97,-205.41l81.73 -115.46c47.92,-76.63 106.98,-176.87 140.54,-259.48 8.95,-22.03 18.78,-41.07 29,-66.78 26.59,-66.84 116.87,-313.57 122.33,-379.11 -77.03,88.62 -80.28,105.64 -178.88,204.24 -70.77,70.77 -73.54,75.44 -151.15,136.19 -61.8,48.38 -97.66,73.39 -173.26,114.08 -43.7,23.53 -84.17,41.28 -132.45,59.11 -244.79,90.43 -521.64,78.77 -759.19,-20.16 -110.05,-45.83 -204.55,-118.93 -290.52,-188.38l-516.15 -497.99c-98.86,-91.59 -122.96,-105.41 -233.92,-188.64 -43.02,-32.26 -97.67,-66.18 -144.9,-91.73 -291,-157.38 -604.2,-247.9 -952.17,-247.9 -322.11,0 -534.54,16.21 -816.32,118.93 -133.75,48.76 -272.01,120.77 -385.38,206.2 -229.32,172.81 -317.14,304.01 -457.98,539.26 -65.14,108.82 -132.97,295.84 -173.59,417.99l-42.88 159.94z"/>
   </g>
   <path class="fil3" d="M7674.1 634.11l2451.91 0c0,88.5 -12.99,172.81 -16.9,253.66l-16.92 253.63 -1876.98 0c0,89 13.74,172.84 16.93,236.72 1.66,33.29 -1.48,56.03 3.55,89.45l21.8 324.85 1792.43 0c-4.24,50.92 -15.83,133.59 -17.07,185.84l-40.86 567.89c-7.28,66.48 -4.92,125.79 -10.17,192.74 -11.82,150.76 -41.81,449.37 -41.81,575.4 -48.13,25.47 -1014.5,346.65 -1039.95,346.65l-521.01 -172.29c-90.68,-30.24 -169.34,-56.39 -260.03,-86.63l-258.91 -87.74 -25.81 -447.66c-2.06,-26.61 -7.36,-30.48 -8.01,-59.63l507.29 0 8.45 143.73c89.82,20.93 526.08,185.49 564,181.85l526.21 -173.86c20.08,-9.28 22.09,0.99 30.74,-36.9 2.36,-10.33 2.76,-8.1 3.81,-21.56l16.48 -279.43c0.97,-40.86 6.8,-38.51 8.61,-75.95 1.49,-30.88 -1.08,-49.99 3.58,-80.96l13.34 -164.21 -1716.34 0c-10.69,-128.43 -18.75,-280.79 -32.57,-407.08l-43.69 -624.25c-4.19,-175.84 -42.11,-490.23 -42.11,-634.28zm1225.95 3694.78c27.5,0 1112.48,-363.7 1235.49,-404.76 81.82,-27.32 358.67,-110.19 413.21,-136.36l31.5 -467.33c10.48,-77.47 7.42,-166.59 16.91,-236.73 10.48,-77.47 7.42,-166.6 16.91,-236.74 21.61,-159.61 29.96,-556.71 50.73,-710.21 11.94,-88.25 19.3,-386.46 32.57,-474.73 19.12,-127.28 31.61,-582.95 50.73,-710.21 11.58,-77.03 5.34,-159.74 16.91,-236.74l45.84 -715.09 -3821.6 0c0,65.22 3.79,120.07 8.92,185.54l51.51 726.34c4.93,45.06 14.71,131.33 15.83,178.64 1.29,54.22 3.24,129.44 10.6,183.86l79.92 1086.85c14.73,108.81 7.06,228.37 25.36,363.56l53.03 733.28c3.03,62.83 2.85,122.04 9.71,184.74 3.36,30.77 7.25,42.74 6.87,86.13 -0.13,15.42 -1.85,33.27 3.39,47.33 13.77,36.96 100.2,46.56 175.57,69.63l877.15 289.62c96.12,32.03 191.33,63.71 291.73,97.19l301.19 96.19z"/>
  </g>
 </g>
</svg>
