<?xml version="1.0" encoding="UTF-8"?>
<!DOCTYPE svg PUBLIC "-//W3C//DTD SVG 1.1//EN" "http://www.w3.org/Graphics/SVG/1.1/DTD/svg11.dtd">
<!-- Creator: CorelDRAW -->
<svg xmlns="http://www.w3.org/2000/svg" xml:space="preserve" width="87.5mm" height="100mm" version="1.1" style="shape-rendering:geometricPrecision; text-rendering:geometricPrecision; image-rendering:optimizeQuality; fill-rule:evenodd; clip-rule:evenodd"
viewBox="0 0 498.96 570.24"
 xmlns:xlink="http://www.w3.org/1999/xlink"
 xmlns:xodm="http://www.corel.com/coreldraw/odm/2003">
 <defs>
  <style type="text/css">
   <![CDATA[
    .fil0 {fill:gray}
   ]]>
  </style>
 </defs>
 <g id="Camada_x0020_1">
  <metadata id="CorelCorpID_0Corel-Layer"/>
  <path class="fil0" d="M249.48 570.24l200.57 -55.59c5.39,-1.81 4.83,-5.35 5.47,-20.15 0.32,-7.56 1.6,-16.39 2.15,-23.47l18.85 -211.7c0.91,-8.68 0.72,-15.27 1.93,-23.69l20.52 -235.64 -498.96 0c0,11.67 6.49,76.66 7.88,94.58 1.14,14.69 3.72,32 4.36,46.87l24.82 282.58c1.83,14 3.34,31.93 4.18,47.05l3.26 34.61c0.16,6.37 -0.93,7.16 4.41,8.96 6.09,2.05 13.67,3.77 20.15,5.47l140.08 39.23c6.24,1.76 13.19,3.64 20.05,5.57 3.11,0.87 17.38,5.33 20.29,5.33zm-153.92 -406.52c8.64,2.06 228.98,0.04 243.81,0.01l-3.43 47.08c-0.23,3.03 -0.01,14.25 -2.23,16.15 -4.51,2.35 -207.55,3.26 -231.76,3.44l6.17 59.69 221.21 -0.52 -9.6 87.59c-11.67,2.38 -23.84,6.13 -34.77,9.13 -43.7,11.99 -27.3,11.9 -70.11,0.26 -11.28,-3.07 -23.74,-6.93 -35.17,-9.41l-5.28 -52.39 -62.73 -0.23 8.51 101.27c20.32,4.31 122.66,35.3 129.26,35.18 6.37,-0.12 112.89,-32.14 129.37,-35.18l28.62 -320.62 -315.69 -0.21 3.81 58.79z"/>
 </g>
</svg>
