<?xml version="1.0" encoding="UTF-8"?>
<!DOCTYPE svg PUBLIC "-//W3C//DTD SVG 1.1//EN" "http://www.w3.org/Graphics/SVG/1.1/DTD/svg11.dtd">
<!-- Creator: CorelDRAW -->
<svg xmlns="http://www.w3.org/2000/svg" xml:space="preserve" width="135.45mm" height="135.45mm" version="1.1" style="shape-rendering:geometricPrecision; text-rendering:geometricPrecision; image-rendering:optimizeQuality; fill-rule:evenodd; clip-rule:evenodd"
viewBox="0 0 1057.44 1057.44"
 xmlns:xlink="http://www.w3.org/1999/xlink"
 xmlns:xodm="http://www.corel.com/coreldraw/odm/2003">
 <defs>
  <style type="text/css">
   <![CDATA[
    .fil0 {fill:gray}
   ]]>
  </style>
 </defs>
 <g id="Camada_x0020_1">
  <metadata id="CorelCorpID_0Corel-Layer"/>
  <path class="fil0" d="M279.38 883.95l79.29 -48.81c5.82,6.77 8.4,13.85 13.8,21.27 17.82,24.49 41.49,36.77 74.35,26.18 37.65,-12.14 29.68,-70.68 29.68,-112.22 0,-93.76 -2.73,-191.63 0.18,-284.87l99.07 0.04c1.58,72.48 0.12,146.37 0.12,218.75 0,60.42 7.86,152.83 -17.23,201.26 -28.91,55.81 -87.4,73.25 -148.97,68.12 -45,-3.75 -84.2,-23.04 -109.47,-55.34 -6.13,-7.84 -18.07,-23.65 -20.81,-34.36zm590.11 -275.82l-3.35 -3.55c-10.09,-12.55 -11.18,-23.73 -34.95,-33.41 -20.63,-8.39 -49.33,-4.44 -62.03,7.99 -12.63,12.36 -15.76,40.17 -3.69,57.73 29.96,43.61 191.39,51.23 208.12,174.24 13.44,98.76 -51.27,154.42 -140.62,162.47 -81.35,7.32 -172.53,-27.59 -202.48,-99.97l79.72 -47.34c19.89,28.76 41.16,57.38 91.04,59.93 23.37,1.19 45.76,-4.07 58.92,-15.76 14.18,-12.61 21.39,-35.05 10.4,-55.77 -12.66,-23.88 -65.34,-42.59 -95.34,-55.38 -38.16,-16.27 -69.78,-36.34 -89.97,-62.86 -43.53,-57.15 -37,-163.16 48.65,-202.13 55.35,-25.18 128.38,-19.58 179.11,21.91 8.31,6.8 27.44,30.54 32.65,43.74 -22.87,12.11 -55.5,38.18 -76.17,48.16zm-869.49 449.31l1057.44 0 0 -1057.44 -1057.44 0 0 1057.44z"/>
 </g>
</svg>
