<?xml version="1.0" encoding="UTF-8"?>
<!DOCTYPE svg PUBLIC "-//W3C//DTD SVG 1.1//EN" "http://www.w3.org/Graphics/SVG/1.1/DTD/svg11.dtd">
<!-- Creator: CorelDRAW -->
<svg xmlns="http://www.w3.org/2000/svg" xml:space="preserve" width="166.593mm" height="100mm" version="1.1" style="shape-rendering:geometricPrecision; text-rendering:geometricPrecision; image-rendering:optimizeQuality; fill-rule:evenodd; clip-rule:evenodd"
viewBox="0 0 1272.02 763.55"
 xmlns:xlink="http://www.w3.org/1999/xlink"
 xmlns:xodm="http://www.corel.com/coreldraw/odm/2003">
 <defs>
  <style type="text/css">
   <![CDATA[
    .fil0 {fill:gray}
   ]]>
  </style>
 </defs>
 <g id="Camada_x0020_1">
  <metadata id="CorelCorpID_0Corel-Layer"/>
  <g id="_2301708798432">
   <path class="fil0" d="M318.01 254.4c1.48,-1.09 17.27,-21.83 23.1,-27.59l44.76 -39.71c15.27,-11.46 38.54,-22.15 57.01,-27.47 4.4,-1.27 9.68,-2.65 13.54,-3.36 37.11,-6.84 73.88,-2.98 107.65,11.08 19.41,8.08 36.08,20.98 51.24,33.23l43.33 41.14c7.74,7.74 17.3,19.53 25.39,26.29 2.6,2.17 3.41,2.46 5.93,5 3.57,3.59 7.19,7.75 10.96,10.9 19.94,16.66 21.53,18.91 46.13,37.34 12.74,9.54 39.96,25.01 53.8,30.67 61.39,25.12 97.34,29.67 165.11,29.67 27.2,0 66.51,-5.13 92,-12.34l27.13 -8.65c14.18,-4.7 33.91,-14.52 47.15,-22.41 20.04,-11.94 24.41,-17.08 40.57,-29.99 14.46,-11.54 37.78,-40.66 47.75,-56.6 22.81,-36.48 36.12,-68.46 47.94,-110.07 1.24,-4.36 3.18,-9.91 3.55,-14.34 -13.59,15.63 -14.16,18.63 -31.55,36.02 -24.32,24.32 -46.74,42.07 -80.58,54.57 -43.18,15.95 -92.01,13.89 -133.91,-3.56 -23.26,-9.69 -39,-23.46 -56.36,-38.05 -2.58,-2.17 -3.41,-2.47 -5.93,-5l-32.29 -31.32c-7.1,-7.04 -16.34,-18.04 -25.33,-26.35 -2.41,-2.23 -3.55,-2.58 -6,-4.94l-33.3 -30.3c-37.26,-32.57 -93.48,-59.95 -142.08,-69.6 -24.19,-4.8 -49.37,-7.8 -74.76,-8.69l-31.67 0c-57.02,2.04 -113.46,15.34 -160.48,43.4 -3.46,2.06 -7.18,4.27 -10.34,6.56 -47.4,34.27 -60.82,51.62 -91.28,102.5 -3.84,6.42 -8.65,16.31 -11.49,23.29 -1.58,3.89 -3.31,7.25 -5.12,11.78 -1.86,4.68 -3.34,8 -5.05,12.83 -3.14,8.83 -15.75,44.73 -16.52,54.04z"/>
   <path class="fil0" d="M-0 636.01c1.48,-1.09 17.27,-21.83 23.1,-27.59 22.21,-21.96 18.99,-20.38 44.76,-39.71l20.91 -12.88c50.83,-25.39 103.87,-29.1 157.28,-6.86 19.41,8.08 36.08,20.98 51.24,33.23 7.88,6.36 13.87,13.57 21.47,20.27 2.28,2.01 3.15,2.22 5.48,4.46l41.76 42.71c2.6,2.17 3.41,2.46 5.93,5 3.57,3.59 7.19,7.75 10.96,10.9l11.06 9.81c4.05,3.13 7.48,6.26 11.28,9.58 37,32.34 93.71,59.88 141.24,69.43 60.46,12.15 133.52,13.47 193.46,-3.49 38.72,-10.96 74.07,-26.86 105.07,-52.94 3.58,-3.01 6.23,-5.28 9.78,-8.11 11.32,-9.04 23.93,-24.69 33.33,-36.23l14.42 -20.37c8.45,-13.52 18.87,-31.2 24.79,-45.77 1.58,-3.89 3.31,-7.24 5.12,-11.78 4.69,-11.79 20.61,-55.31 21.58,-66.87 -13.59,15.63 -14.16,18.63 -31.55,36.02 -12.48,12.48 -12.97,13.31 -26.66,24.02 -10.9,8.53 -17.23,12.94 -30.56,20.12 -7.71,4.15 -14.85,7.28 -23.36,10.43 -43.18,15.95 -92.01,13.89 -133.91,-3.56 -19.41,-8.08 -36.08,-20.98 -51.24,-33.23l-91.04 -87.84c-17.44,-16.16 -21.69,-18.59 -41.26,-33.27 -7.59,-5.69 -17.23,-11.67 -25.56,-16.18 -51.33,-27.76 -106.57,-43.73 -167.95,-43.73 -56.82,0 -94.28,2.86 -143.99,20.98 -23.59,8.6 -47.98,21.3 -67.97,36.37 -40.45,30.48 -55.94,53.62 -80.78,95.12 -11.49,19.19 -23.45,52.18 -30.62,73.73l-7.56 28.21z"/>
  </g>
 </g>
</svg>
