<?xml version="1.0" encoding="UTF-8"?>
<!DOCTYPE svg PUBLIC "-//W3C//DTD SVG 1.1//EN" "http://www.w3.org/Graphics/SVG/1.1/DTD/svg11.dtd">
<!-- Creator: CorelDRAW -->
<svg xmlns="http://www.w3.org/2000/svg" xml:space="preserve" width="100mm" height="100mm" version="1.1" style="shape-rendering:geometricPrecision; text-rendering:geometricPrecision; image-rendering:optimizeQuality; fill-rule:evenodd; clip-rule:evenodd"
viewBox="0 0 375.53 375.53"
 xmlns:xlink="http://www.w3.org/1999/xlink"
 xmlns:xodm="http://www.corel.com/coreldraw/odm/2003">
 <defs>
  <style type="text/css">
   <![CDATA[
    .fil0 {fill:gray}
   ]]>
  </style>
 </defs>
 <g id="Camada_x0020_1">
  <metadata id="CorelCorpID_0Corel-Layer"/>
  <g id="_2301716731504">
   <path class="fil0" d="M242.04 181.9l0 1.47c28.74,6.7 41.07,26.97 41.07,57.21 0,12.11 -3.27,20.98 -7.57,29.1 -1.79,3.38 -5.38,7.78 -7.99,10.34 -16.86,16.52 -44.49,20.7 -72.45,20.7l-93.15 0 0 -218.57 112.22 0c25.41,0 51.1,12.16 57.37,37.98 3.59,14.79 1.93,28.22 -3.82,39.78 -4.21,8.46 -17.98,21.35 -25.68,21.99zm-242.04 -122.49l0 256.71c0,11.26 5.31,24.6 11.2,32.81 4.5,6.28 8.77,10.54 14.98,15.09 8.27,6.07 21.82,11.51 33.23,11.51l256.71 0c11.26,0 24.6,-5.31 32.81,-11.2 9.62,-6.89 15.19,-13.57 20.5,-24.24 3.05,-6.13 6.1,-15.14 6.1,-23.97l0 -256.71c0,-8.61 -3.01,-17.7 -5.86,-23.48 -6.94,-14.08 -15.45,-22.81 -29.58,-29.83 -6.13,-3.05 -15.14,-6.1 -23.97,-6.1l-256.71 0c-30.44,0 -59.41,28.95 -59.41,59.41z"/>
   <path class="fil0" d="M140.09 267.71c0,1.69 0.51,2.2 2.2,2.2l58.68 0c16.13,0 32.56,-2.45 39.63,-16.11 11.22,-21.7 2.23,-52.83 -27.89,-52.83l-72.61 0 0 66.74z"/>
   <path class="fil0" d="M140.09 173.83l60.14 0c43.15,0 38.69,-42.28 28.45,-52.65 -4.81,-4.87 -11.78,-8.23 -21.11,-8.23l-67.48 0 0 60.88z"/>
  </g>
 </g>
</svg>
